<?xml version="1.0" encoding="UTF-8"?>
<svg id="a" data-name="Camada 1" xmlns="http://www.w3.org/2000/svg" viewBox="0 0 453.54482 250.68472">
  <defs>
    <style>
      .b {
        fill: #9da1a2;
      }

      .c {
        fill: #cdad6e;
      }
    </style>
  </defs>
  <path class="b" d="M414.48388,145.19137c-14.35626,2.59899-28.44436,5.14943-42.76083,7.74121,1.57667,2.89643,2.92229,5.61012,4.50514,8.17778.8337,1.35253.62514,2.38448-.04178,3.65466-3.82086,7.27671-8.21808,14.18209-13.10811,20.78594-.8221,1.11015-1.71543,1.56486-3.11137,1.6184-6.0587.23257-12.11149.61417-18.16833.90179-1.39528.06622-2.5101.46197-3.5044,1.54124-3.93467,4.27087-8.2718,8.12221-12.78835,11.76365-1.06306.85706-1.56075,1.76352-1.62408,3.14289-.24502,5.33962-.6784,10.67111-.88906,16.01162-.07115,1.8039-.745,2.86265-2.2794,3.80691-7.1473,4.39834-14.52458,8.33753-22.18732,11.76456-1.4282.63877-2.56486.68826-3.98813.00434-5.21794-2.50715-10.52098-4.83738-15.74196-7.33845-1.44514-.69225-2.72703-.90574-4.29007-.39862-5.76866,1.87162-11.6531,3.31786-17.64079,4.2971-1.36664.22349-2.20247.9336-2.95871,2.01373-3.22188,4.60161-6.53746,9.13797-9.7361,13.75539-.90426,1.30534-1.96042,1.80298-3.53661,1.89151-8.65028.48598-17.29281.47314-25.94129-.01633-1.45462-.08232-2.43183-.55344-3.29423-1.80788-3.23244-4.70193-6.61963-9.29733-9.89781-13.96842-.70769-1.00838-1.49657-1.64715-2.75257-1.84908-6.07976-.97748-12.04302-2.47458-17.898-4.36041-1.40323-.452-2.52442-.32577-3.80137.27948-5.39332,2.55609-10.83905,5.00216-16.22154,7.58027-1.23777.59287-2.24579.6293-3.50286.06726-7.90577-3.53468-15.54772-7.54884-22.88325-12.1559-1.17835-.74011-1.68722-1.5401-1.75091-2.97268-.24527-5.51688-.70438-11.02413-.97192-16.54036-.06729-1.38721-.56686-2.28272-1.62742-3.13962-4.58199-3.70214-8.98505-7.61107-12.96798-11.96175-.84887-.9273-1.7943-1.317-3.02443-1.37662-6.05614-.29356-12.10709-.71871-18.16578-.91894-1.71741-.05671-2.80379-.64145-3.77888-1.97959-4.68028-6.4229-8.91228-13.11719-12.6885-20.11204-.86952-1.61063-.88396-2.87326.06995-4.42801,1.48017-2.41245,2.74044-4.95959,4.24727-7.7318-14.36422-2.60371-28.43512-5.15423-42.77172-7.75292,1.09523-.74707,2.00057-.49011,2.84796-.49065,24.81944-.01599,49.6389-.01196,74.45835-.01544,1.42104-.00021,2.60845-.07022,3.50948,1.61247,14.16888,26.46027,35.9003,44.11187,63.94783,54.19851,17.55401,6.31295,35.69007,8.29757,54.25421,6.51847,23.00137-2.20428,43.83197-10.06602,62.31384-23.95552,13.09896-9.84412,23.59094-21.96667,31.24518-36.48024.6356-1.2051,1.22069-1.92745,2.76355-1.92446,25.62287.04962,51.24583.03625,76.8688.04126.34857.00007.72139-.04249,1.26427.50529Z"/>
  <path class="b" d="M0,117.23954c1.36145-.56381,2.13358.17976,2.96796.64102,6.78655,3.75188,13.58646,7.48042,20.33529,11.299,1.53197.86678,3.04402,1.24552,4.80284,1.24361,33.6501-.03651,67.30025-.02698,100.9504-.02698h2.96072c1.75289,2.78742,2.90939,5.78277,4.39264,8.60837,13.31955,25.37329,34.06378,41.88961,61.3532,49.79636,33.98144,9.84567,65.83812,4.61984,94.87773-15.78777,12.69229-8.91953,22.41465-20.56256,29.37134-34.46182.99646-1.99096,2.17075-3.9121,2.96342-5.98011.70733-1.84532,1.85145-2.21248,3.66722-2.20984,32.75748.04781,65.51509.01682,98.27257.07574,2.15538.00387,3.94432-.5143,5.74783-1.64052,6.04772-3.77659,12.15654-7.45606,18.27165-11.12331.77351-.46393,1.45031-1.39213,2.61002-.98752-.34409.85247-1.14454,1.15159-1.79126,1.58796-6.72605,4.53797-13.47581,9.04074-20.19731,13.58522-1.14683.77539-2.32798,1.17073-3.72598,1.23318-14.60521.65229-29.20796,1.35764-43.81202,2.03545-13.53865.6284-27.07798,1.24214-40.61712,1.86015-3.20609.14636-6.41322.40048-9.61865.38278-1.97088-.01089-3.01688.7472-3.85869,2.50652-7.95158,16.61808-19.64682,30.0666-34.8049,40.49799-15.32562,10.54673-32.26234,16.95628-50.73052,19.19846-30.29057,3.67754-58.13094-2.83832-83.1194-20.51741-14.32641-10.1358-25.3537-23.16793-32.85803-39.07011-.89094-1.88794-2.03067-2.53255-4.06358-2.61377-15.32057-.61197-30.63633-1.34347-45.95413-2.02519-14.16176-.63031-28.32425-1.24415-42.4863-1.86781-2.93896-.12942-5.87651-.30101-8.81666-.38766-.9224-.0272-1.73038-.20604-2.52177-.69586-8.10027-5.01359-16.21348-10.00631-24.5685-15.15612Z"/>
  <path class="b" d="M125.903,63.01015c2.50944-5.6396,5.29116-10.69333,8.58778-15.44608,15.83374-22.82751,37.61353-37.00357,64.31067-43.98639C208.2542,1.10527,217.91471-.10418,227.63871.00703c30.96802.35418,58.14236,10.52654,80.59667,32.19431,8.73898,8.4329,15.57227,18.3035,20.7171,29.31811.14641.31352.24129.65246.34114.98525.022.07332-.03727.17099-.09573.40215-2.60747.19701-5.25685.11444-8.03609.03019-1.05378-1.94191-2.0401-3.92213-3.16996-5.81696-14.33576-24.04138-35.36069-39.44139-62.27415-46.23675-34.55576-8.72498-66.47931-2.50304-94.91747,19.37203-10.74151,8.26254-19.18772,18.58052-25.30358,30.71031-.80495,1.5965-1.73002,2.22578-3.495,2.08037-1.91883-.1581-3.8608-.03589-6.09864-.03589Z"/>
  <path class="c" d="M88.78807,113.45792c-7.27308-7.07131-13.94007-14.43356-20.7745-21.75867-.74158.82732-.4938,1.57182-.49774,2.22959-.03665,6.15404.01784,12.3092-.08365,18.46191-.02797,1.69534.27255,2.9291,2.06663,3.42954-4.76092.58737-9.52186,1.17472-14.89646,1.83779,1.66942-1.29154,2.12079-2.53229,2.10941-4.12598-.06758-9.45398-.03997-18.9088-.00731-28.36321.00492-1.42414-.04643-2.71258-1.79475-3.27549,6.45669-.59722,12.86509-.82294,19.59648-.78589-1.59878,1.75669-.62754,2.96602.45287,4.14937,3.36628,3.68711,6.72548,7.38074,10.10791,11.05299,1.50519,1.63417,3.05938,3.22328,4.52022,4.75814,1.00104-.05799,1.3166-.79225,1.77801-1.29801,4.80701-5.26909,9.58816-10.56172,14.39295-15.83281,1.00259-1.0999,2.15776-2.12364.22673-3.78363h19.006c-1.38547.89329-1.66212,2.11515-1.66311,3.52575-.00546,7.75877-.03749,15.5177-.11499,23.27603-.01453,1.45389.36305,2.6022,1.8256,3.46435-5.12108.41912-10.04987.8225-15.47322,1.26635,1.15953-.87549,1.84161-1.51868,1.83006-2.71277-.06207-6.41107-.02934-12.82304-.02934-19.77946-7.9741,7.98449-15.24517,16.07374-22.5778,24.26411Z"/>
  <path class="c" d="M405.81474,118.54944c-9.44448-.45347-18.84329-1.76546-27.63724-5.86178-4.23658-1.97346-8.11636-4.48132-10.94076-8.33058-4.18666-5.70586-3.50823-11.74692,1.85236-16.38549,3.88684-3.36337,8.52921-5.08149,13.50049-5.99615,10.22679-1.8816,20.38927-1.74127,30.37483,1.38169,4.83583,1.51238,9.14261,4.02695,12.46359,7.93827,7.40085,8.71648,4.77773,20.05142-5.65498,24.72415-4.40784,1.97425-9.08617,2.3839-13.95829,2.52991ZM401.18391,112.59656c3.97767-.13721,7.75043-.62172,11.12108-2.70555,4.03237-2.49294,5.75395-6.21294,4.97995-10.86485-.80951-4.86531-4.07092-7.7768-8.23606-9.79193-6.31157-3.0536-13.00143-3.37052-19.81556-2.34522-3.12445.47012-6.01859,1.60009-8.57645,3.4626-4.7295,3.44372-5.4282,9.3011-1.67169,13.78767.97295,1.16202,2.10042,2.16699,3.35139,3.04119,5.70278,3.98521,12.22327,5.06807,18.84735,5.4161Z"/>
  <path class="c" d="M311.14083,96.81382c5.8044,4.51513,10.86703,8.9597,16.26431,13.35071-5.07568-.33904-10.15139-.67809-15.58126-1.04079.67781-1.16372.27654-1.90081-.54013-2.55364-4.0375-3.22763-8.05175-6.48428-12.07945-9.72418-.41759-.33593-.86914-.61371-1.4439-.62043-4.88304-.05707-9.76582-.13038-15.00134-.50756.62144,4.20383-1.22258,8.32938,1.1381,11.76925h-14.53975c1.55356-1.62211,1.63987-3.16683,1.61565-4.80861-.09459-6.41522-.10819-12.83177-.12568-19.24789-.00409-1.50062.08223-2.99846-1.03847-3.90327,11.85123,0,23.70331.00701,35.55543-.00389,4.0205-.00369,8.01141.30532,11.95717,1.07744,2.1065.41218,4.15638,1.06603,5.96013,2.24844,2.37549,1.55717,3.88498,3.63934,3.58777,6.67492-.27258,2.78436-2.18844,4.13033-4.46575,5.16504-2.80808,1.27587-5.85017,1.45536-8.84465,1.85159-.6083.08048-1.21954.1385-2.41816.27285ZM282.93878,91.57989c1.0254.08136,1.81332.19098,2.60223.19889,5.4318.05446,10.86043.12976,16.28909.40857,3.18703.16367,6.4022.43809,9.57981-.3328,2.40897-.58441,3.52379-1.52322,3.63116-3.27461.11685-1.90626-.87496-3.11718-3.30421-3.89957-1.44181-.46437-2.92899-.75095-4.45365-.79027-5.42925-.14-10.85811-.3031-16.28798-.41318-2.64366-.05359-5.28931-.00928-8.05646-.00928v8.11224Z"/>
  <path class="c" d="M204.19447,79.00101h14.97283c10.88717,0,21.77438.00609,32.66155-.00593,1.84141-.00204,3.78866.41899,5.38475-1.76741.68896,2.75117.38842,4.89254.29799,7.37506-2.5236-1.86273-5.21601-1.35202-7.83335-1.43539-9.62882-.30673-19.26036-.21534-28.89121-.2312-.97498-.00162-1.94999-.00021-3.03721-.00021-.5537,2.41431-.21288,4.68855-.2325,6.89142.79708.66422,1.63314.39709,2.39952.39991,6.51435.02408,13.02886.0195,19.5433.01005,1.74483-.00253,3.57774.39062,5.10367-1.55169.6083,2.58711.34641,4.64726.27497,7.19293-2.16215-2.02248-4.49442-1.70133-6.76551-1.70225-5.80054-.00232-11.60111-.00075-17.40165-.00074h-3.06223v7.96574c.50345.60886,1.27149.35601,1.94953.36019,11.33147.06978,22.66311.10934,33.99455.18445,1.70043.01127,3.35528-.03105,4.85603-1.64699.49181,2.62525.2205,4.71052.2906,6.85194-6.08401-2.05455-12.22157-1.0544-18.23833-1.31248-8.46212-.36298-16.95179-.13339-25.42908-.07163-3.4718.02527-6.94047.35292-10.83561.16078,1.3414-1.32047,1.30458-2.83774,1.29893-4.3743-.02387-6.50905-.01775-13.01826-.00425-19.52735.00281-1.36168.02524-2.69982-1.29729-3.7649Z"/>
  <path class="c" d="M151.55467,96.69814c.28499,3.99704-.58883,7.79186.65981,11.71643-4.426.94533-9.24341.38118-14.11626,1.04045,1.39747-1.0453,1.51416-2.42199,1.51508-3.91122.00454-7.30895.05251-14.61797.11888-21.92667.01337-1.47032-.03531-2.8581-1.68418-3.85305,1.10892-.07707,2.02061-.19787,2.93192-.19511,13.38065.04053,26.76075-.44271,40.14118-.06076,2.77797.0793,5.47372.68663,8.08062,1.64431,1.26021.46296,2.42267,1.1173,3.43299,2.02181,2.73246,2.44628,2.78422,5.62877.04247,8.0775-2.85284,2.54799-6.40701,3.39885-10.06658,3.85934-8.3311,1.04829-16.7227.91379-25.09223,1.21273-1.86059.06645-3.71769.2304-5.96371.37425ZM151.66542,92.314c8.02035-.26509,15.7493-.48681,23.47436-.80373,1.5824-.06491,3.22485-.12146,4.70419-.84269,1.39822-.68163,2.72831-1.52335,2.69417-3.30853-.03682-1.92585-1.47104-2.81901-3.05696-3.25785-1.44063-.39864-2.97591-.5563-4.47768-.61656-6.67972-.26798-13.35163.17456-20.02605.34658-1.10642.0285-2.3022-.31829-3.31204.36104v8.12173Z"/>
  <path class="c" d="M42.1717,119.30052c-5.16049.75711-10.32099,1.51424-16.02966,2.3518,1.96819-1.19775,2.37775-2.58037,2.3653-4.34744-.07283-10.33445-.0384-20.66968-.03266-31.00463.00078-1.40191.17994-2.8621-1.76087-3.52575,5.2502-.74921,10.29662-.48515,15.49842-.58712-1.46389.7108-1.67751,1.87611-1.68313,3.26177-.04053,9.97127-.13655,19.94233-.21899,29.91341-.01256,1.51958-.08244,3.05721,1.8616,3.93796Z"/>
  <path class="c" d="M338.77231,80.22527c4.92616-.15743,9.76869-.18948,14.91598.31989-1.34575,1.13112-1.45184,2.31599-1.42814,3.72628.14079,8.3665.18028,16.73544.15537,25.10328-.00458,1.52878.65002,2.36188,1.51109,2.88266-4.83916-.00991-9.98697-.85188-15.66428-1.23256,2.00077-.74579,2.2432-2.02322,2.22486-3.49778-.10087-8.09684-.1779-16.19399-.24165-24.29122-.00961-1.22436-.27196-2.27846-1.47323-3.01056Z"/>
  <path class="c" d="M204.22288,125.08885c2.31719-.93475,3.53167-.22169,4.61317,1.44243,1.87757,2.88913,3.95383,5.64931,6.34067,9.01978v-10.77436c1.30867-.69579,2.46017-.23193,3.74645-.63797v19.17946c-1.86456.7374-3.11506.22432-4.21206-1.4932-1.89657-2.96937-4.00945-5.80082-6.35113-9.14676-.86104,3.92359.04084,7.3844-.62331,10.70809-1.04299.34204-1.99616.32368-3.12353.00243-.64237-6.06377-.34579-12.16763-.39025-18.29991Z"/>
  <path class="c" d="M291.25638,143.64731c-1.06496.16813-1.94084.22969-2.98703-.07821-.71443-2.47636.1571-5.17269-.61736-8.10473-1.57749,1.64042-2.38291,3.41097-3.4461,4.98737-1.46777,2.17634-2.26691,2.19118-3.61749-.01441-1.09304-1.78493-2.13694-3.5999-3.65215-5.27231v8.12394c-1.22723.51634-2.24615.28387-3.44489.23541v-16.69454c1.93044-.31863,3.16228.2793,4.08579,2.07701,1.45367,2.82963,2.94701,5.65937,4.88732,8.43867,1.57197-2.37532,3.14874-4.51995,4.46081-6.81561,1.05329-1.84292,2.35018-2.20325,4.33111-1.35029v14.4677Z"/>
  <path class="c" d="M227.82504,124.28373c1.46417-.22357,2.60178-.18157,3.86124-.02643,2.34119,6.35707,4.66172,12.65812,6.99589,18.99616q-3.54694.70313-5.27614-3.56655c-2.37755-.42234-4.83131-.07646-7.1899-.17381q-2.04239,4.29967-5.36608,3.8116c2.33027-6.36137,4.63818-12.66173,6.97499-19.04096ZM231.91743,135.64624c-.37394-2.22266-1.15219-4.20416-2.27286-6.58378-.79705,2.50505-1.87509,4.40166-2.02493,6.73998,1.56298.0949,2.86945.24898,4.29779-.15621Z"/>
  <path class="c" d="M269.74007,126.19377c.4479,1.2002.51077,2.13864.06778,3.10099-2.58294.34784-5.12639-.38067-7.6752-.27014-.63119,1.17586-.27585,2.30944-.33738,3.55002,2.37036.71239,4.70553.24944,6.94943.61108.4.98097.37989,1.92546.03296,3.02226-2.16699.26824-4.36825-.036-6.60599-.05126-.57829,1.24028-.56645,2.43826-.47876,3.74216,2.84598.60883,5.69827.3882,8.54402.62374.37266.98649.3331,1.91076-.00052,2.96922h-11.97423v-17.98273c3.73588-.35083,7.52823.56871,11.47791.68465Z"/>
  <path class="c" d="M251.13944,134.24677c.48559-.10305.82275-.22708,1.16275-.23531.61337-.01486,1.24661-.13079,2.14819.33776,0,2.02385-.02079,4.21388.00942,6.40318.0136.98663-.65348,1.42888-1.35621,1.80344-5.36713,2.86073-12.15903,1.33943-13.66541-6.26839-.39414-1.9906-.33719-4.06097.35285-6.06284,1.03174-2.99312,2.89067-5.16346,6.08829-5.71159,3.44293-.59019,6.53857.13167,8.84004,3.32921-.52283.93259-1.34457,1.57695-2.10925,2.26204-.18424-.07096-.36433-.09988-.49423-.19631-2.92853-2.17343-5.25956-2.37759-7.21707-.6226-2.02483,1.8154-2.46694,5.85772-.91734,8.38784,1.25073,2.04225,3.4909,2.90429,5.78167,2.26983,1.01405-.28084,1.44413-.87055,1.39077-1.93227-.06215-1.23626-.01448-2.47805-.01448-3.764Z"/>
  <path class="c" d="M180.98577,141.94405c.29472-1.04773.54464-1.97853,1.36667-2.80176,1.69971.90936,3.49204,1.58887,5.50517,1.42788,1.15199-.09214,2.26151-.36836,2.44196-1.60944.18748-1.28938-.86627-1.80607-1.96304-2.08736-1.2031-.30854-2.41979-.56698-3.61521-.90193-1.83585-.5144-3.25925-1.5023-3.49472-3.56096-.24113-2.10853.44083-3.94735,2.23192-5.10431,3.12445-2.01824,6.41835-2.29589,9.91556-.53701-.12146,1.15752-.46555,2.11173-1.0749,3.09106-.89883-.25098-1.74411-.47959-2.58487-.72377-.88523-.25705-1.74793-.18925-2.62751.06537-.9893.28637-1.96647.67044-2.00691,1.82817-.04149,1.18816.9571,1.61159,1.92969,1.86899,1.02827.27213,2.09192.41133,3.11915.68676,2.9079.77974,4.1416,2.233,4.12346,4.77718-.01854,2.59792-1.73701,4.67269-4.40483,5.31816-2.71441.65674-5.98452.04845-8.86159-1.73702Z"/>
  <path class="c" d="M167.68332,128.58377c0,3.03186-.05506,5.77031.0156,8.50549.06958,2.69598,1.58021,3.95255,4.12248,3.57888,1.73221-.2546,2.70764-1.2633,2.83823-3.30023.13637-2.12622.04417-4.2662.09537-6.39912.02524-1.05111-.19876-2.12723.23161-3.19302.92339-.66932,1.98808-.58421,3.2756-.60079,0,3.95227.33928,7.87086-.09779,11.70096-.41621,3.64711-3.56551,5.26919-8.18267,4.94046-3.5777-.25472-5.91103-2.53376-6.07827-6.17364-.12622-2.74715-.025-5.50475-.025-8.25481,1.06736-.85946,2.26658-.54968,3.80484-.80419Z"/>
  <path class="c" d="M196.84011,125.47138c1.27114-.41577,2.22748-.55434,3.41694-.27337v18.20167c-1.15615.29751-2.18903.37375-3.52506-.15482.00987-5.90776-.15671-11.89398.10812-17.77349Z"/>
  <path class="c" d="M227.67637,75.95829c1.03586-2.02833,2.76679-3.14743,3.47589-5.05508h8.6869c-1.83968,1.55766-3.99398,2.13501-5.35405,3.55541-2.03343,2.12366-4.29318,1.35843-6.80874,1.49967Z"/>
</svg>